# Blender v3.0.0 OBJ File: 'aircraft.blend'
# www.blender.org
mtllib aircraft.mtl
o node_id3_mesh_id4
v 0.015648 0.004373 -0.303621
v 0.018581 0.006498 0.267954
v 0.001980 0.199052 0.222438
v 0.018581 0.006498 0.267954
v 0.015648 0.004373 -0.303621
v 0.389564 0.003834 0.499967
v -0.017889 0.004246 -0.303741
v -0.003657 0.197634 0.222736
v -0.021780 0.005080 0.268252
v -0.021780 0.005080 0.268252
v -0.390666 0.002559 0.500209
v -0.017889 0.004246 -0.303741
v 0.437482 0.003294 0.558208
v 0.389564 0.003834 0.499967
v 0.467590 0.003721 0.667653
v -0.390666 0.002559 0.500209
v -0.438447 0.001878 0.558506
v -0.468454 0.002207 0.667971
v 0.008670 0.114812 -0.229648
v -0.010835 0.114739 -0.229718
v -0.001029 0.340322 0.596920
v -0.010835 0.114739 -0.229718
v -0.017889 0.004246 -0.303741
v -0.059578 0.034248 0.661238
v -0.001029 0.340322 0.596920
v 0.015648 0.004373 -0.303621
v 0.008670 0.114812 -0.229648
v -0.001029 0.340322 0.596920
v 0.059407 0.036430 0.660779
v -0.059578 0.034248 0.661238
v -0.017889 0.004246 -0.303741
v -0.390666 0.002559 0.500209
v -0.468454 0.002207 0.667971
v 0.467590 0.003721 0.667653
v 0.389564 0.003834 0.499967
v 0.015648 0.004373 -0.303621
v 0.059407 0.036430 0.660779
v -0.438447 0.001878 0.558506
v -0.021780 0.005080 0.268252
v -0.001029 -0.002923 -1.036512
v 0.018581 0.006498 0.267954
v 0.437482 0.003294 0.558208
v -0.001029 -0.002923 -1.036512
v -0.001029 -0.002923 -1.036512
v 0.001980 0.199052 0.222438
v 0.018581 0.006498 0.267954
v -0.003657 0.197634 0.222736
v -0.001029 -0.002923 -1.036512
v -0.021780 0.005080 0.268252
v -0.468454 0.002207 0.667971
v -0.438447 0.001878 0.558506
v -0.001029 -0.002923 -1.036512
v -0.059578 0.034248 0.661238
v -0.001029 -0.002923 -1.036512
v 0.437482 0.003294 0.558208
v 0.467590 0.003721 0.667653
v 0.059407 0.036430 0.660779
v -0.001029 -0.002923 -1.036512
v 0.059407 0.036430 0.660779
v -0.001029 0.340322 0.596920
v -0.059578 0.034248 0.661238
v -0.001029 -0.002923 -1.036512
v -0.001029 0.340322 0.596920
vt 0.070622 0.830544
vt 0.000000 0.830544
vt 0.046189 0.631573
vt 0.707484 0.606256
vt 0.707484 0.922966
vt 0.622255 0.737345
vt 0.210391 0.830610
vt 0.140332 0.830610
vt 0.164137 0.631589
vt 0.598165 0.606622
vt 0.598165 0.923268
vt 0.513434 0.792628
vt 0.604913 0.606622
vt 0.604913 0.672635
vt 0.598165 0.646576
vt 0.611643 0.672637
vt 0.604913 0.632679
vt 0.611643 0.606622
vt 0.869246 0.000000
vt 0.869246 0.299244
vt 0.862276 0.299127
vt 0.509306 0.930164
vt 0.458032 0.590460
vt 0.491252 0.624478
vt 0.397254 0.930164
vt 0.390873 0.935500
vt 0.352138 0.618001
vt 0.390873 0.590392
vt 0.280399 0.915650
vt 0.862276 0.000000
vt 0.862276 0.382372
vt 0.730459 0.063248
vt 0.862276 0.066015
vt 0.730459 0.701521
vt 0.861853 0.698721
vt 0.861853 0.764734
vt 0.861853 0.382372
vt 0.513434 0.590460
vt 0.397254 0.139306
vt 0.513434 0.000000
vt 0.397254 0.000000
vt 0.397254 0.590392
vt 0.280399 0.450886
vt 0.931011 0.848608
vt 0.861853 0.832744
vt 0.931012 0.382372
vt 1.000000 0.382372
vt 1.000000 0.848709
vt 0.931012 0.398260
vt 0.000000 0.590818
vt 0.140332 0.591013
vt 0.140332 0.631573
vt 0.140268 0.000000
vt 0.140332 0.040854
vt 0.280395 0.040563
vt 0.280399 0.631589
vt 0.280399 0.000000
vt 0.513434 0.020131
vt 0.622255 0.000000
vt 0.622255 0.606622
vt 0.622255 0.586579
vt 0.730459 0.000000
vt 0.730459 0.606256
vn 0.9964 0.0846 -0.0054
vn 0.0095 0.9999 -0.0038
vn -0.9957 0.0921 -0.0069
vn -0.0078 1.0000 -0.0015
vn -0.0240 -0.9997 0.0105
vn 0.0269 -0.9996 0.0104
vn 0.0027 -0.9647 0.2632
vn 0.9869 -0.1564 0.0399
vn -0.9860 -0.1615 0.0420
vn 0.0786 -0.9963 0.0344
vn 0.0787 -0.9963 0.0344
vn 0.0795 -0.9961 0.0370
vn -0.0804 -0.9961 0.0368
vn 0.0121 -0.9999 0.0063
vn -0.0128 -0.9999 0.0074
vn -0.9965 -0.0822 0.0156
vn 0.9958 -0.0899 0.0164
vn -0.0785 0.9966 -0.0245
vn 0.0803 0.9964 -0.0260
vn 0.9816 0.1870 -0.0393
vn -0.9829 0.1801 -0.0378
usemtl aircraft
s 1
f 3/1/1 2/2/1 1/3/1
f 6/4/2 5/5/2 4/6/2
f 9/7/3 8/8/3 7/9/3
f 12/10/4 11/11/4 10/12/4
f 15/13/5 14/14/5 13/15/5
f 18/16/6 17/17/6 16/18/6
f 21/19/7 20/20/7 19/21/7
f 25/22/8 23/23/8 22/24/8
f 25/22/8 24/25/8 23/23/8
f 29/26/9 27/27/9 26/28/9
f 29/26/9 28/29/9 27/27/9
f 33/30/10 31/31/11 30/32/10
f 33/30/10 32/33/12 31/31/11
f 37/34/13 35/35/13 34/36/13
f 37/34/13 36/37/13 35/35/13
f 40/38/14 39/39/14 38/40/14
f 43/41/15 42/42/15 41/43/15
f 46/44/16 45/45/16 44/46/16
f 49/47/17 48/48/17 47/49/17
f 53/50/18 51/51/18 50/52/18
f 53/50/18 52/53/18 51/51/18
f 57/54/19 55/55/19 54/56/19
f 57/54/19 56/57/19 55/55/19
f 60/58/20 59/59/20 58/60/20
f 63/61/21 62/62/21 61/63/21
